<?xml version="1.0" standalone="no"?>
<!DOCTYPE svg PUBLIC "-//W3C//DTD SVG 20010904//EN"
 "http://www.w3.org/TR/2001/REC-SVG-20010904/DTD/svg10.dtd">
<svg version="1.0" xmlns="http://www.w3.org/2000/svg"
 width="200.000000pt" height="200.000000pt" viewBox="0 0 200.000000 200.000000"
 preserveAspectRatio="xMidYMid meet">
<metadata>
Created by potrace 1.16, written by Peter Selinger 2001-2019
</metadata>
<g transform="translate(0.000000,200.000000) scale(0.100000,-0.100000)"
fill="#000000" stroke="none">
<path d="M437 860 c-144 -43 -185 -255 -71 -362 111 -104 295 -31 318 126 23
149 -111 277 -247 236z m143 -60 c38 -27 70 -91 70 -140 0 -48 -31 -110 -69
-143 -26 -22 -43 -27 -84 -27 -102 0 -163 72 -155 182 5 65 24 99 79 136 43
30 111 26 159 -8z"/>
<path d="M1115 851 c-81 -37 -120 -111 -113 -217 3 -52 9 -70 34 -100 46 -57
77 -76 132 -82 68 -6 113 11 160 62 97 105 65 279 -62 337 -52 24 -100 24
-151 0z m142 -38 c111 -52 119 -229 13 -300 -39 -27 -106 -31 -150 -8 -61 32
-99 123 -80 194 28 105 127 157 217 114z"/>
<path d="M10 660 c0 -193 1 -200 20 -200 19 0 20 7 20 180 l0 180 58 0 c66 0
97 -22 108 -76 8 -41 -28 -84 -78 -93 l-37 -6 55 -92 c39 -67 60 -93 74 -93
11 0 20 2 20 4 0 2 -18 35 -40 72 -44 75 -47 84 -27 84 21 0 57 44 68 82 13
51 -7 106 -50 135 -28 19 -47 23 -112 23 l-79 0 0 -200z"/>
<path d="M740 660 l0 -200 70 0 c38 0 80 5 94 11 28 13 56 64 56 104 0 33 -24
81 -46 89 -15 6 -15 8 -1 24 24 26 30 67 17 107 -15 45 -56 65 -135 65 l-55 0
0 -200z m162 -40 c45 -55 11 -117 -69 -127 l-53 -6 0 83 0 83 52 -5 c38 -4 57
-12 70 -28z"/>
<path d="M1390 840 c0 -16 7 -20 35 -20 l35 0 0 -180 c0 -173 1 -180 20 -180
19 0 20 7 20 180 l0 180 40 0 c33 0 40 3 40 20 0 19 -7 20 -95 20 -88 0 -95
-1 -95 -20z"/>
<path d="M1755 760 l65 -100 -65 -100 c-60 -93 -63 -100 -41 -100 19 0 34 17
72 80 27 44 52 80 55 80 3 0 28 -36 55 -80 38 -62 54 -79 72 -80 16 0 21 4 16
13 -4 6 -32 49 -61 95 -29 45 -53 87 -53 92 0 5 24 47 53 92 29 46 57 89 61
96 5 8 0 12 -16 12 -18 -1 -34 -18 -72 -80 -27 -44 -52 -80 -55 -80 -3 0 -28
36 -54 80 -39 64 -53 80 -72 80 -23 0 -21 -6 40 -100z"/>
</g>
</svg>
