<?xml version="1.0" standalone="no"?>
<!DOCTYPE svg PUBLIC "-//W3C//DTD SVG 20010904//EN"
 "http://www.w3.org/TR/2001/REC-SVG-20010904/DTD/svg10.dtd">
<svg version="1.0" xmlns="http://www.w3.org/2000/svg"
 width="256.000000pt" height="181.000000pt" viewBox="0 0 256.000000 181.000000"
 preserveAspectRatio="xMidYMid meet">
<metadata>
Created by potrace 1.16, written by Peter Selinger 2001-2019
</metadata>
<g transform="translate(0.000000,181.000000) scale(0.100000,-0.100000)"
fill="#000000" stroke="none">
<path d="M574 775 c-100 -49 -144 -122 -144 -235 0 -108 45 -185 135 -233 56
-30 164 -30 220 0 157 83 193 285 74 412 -77 81 -190 104 -285 56z m201 -69
c51 -33 79 -84 83 -151 9 -135 -87 -222 -219 -200 -65 11 -123 71 -137 140
-19 94 27 190 108 224 34 15 135 6 165 -13z"/>
<path d="M1480 793 c-43 -15 -110 -68 -140 -109 -29 -40 -34 -57 -38 -120 -6
-91 13 -146 67 -201 75 -78 178 -102 269 -63 66 29 137 103 152 161 15 55 8
155 -14 197 -43 83 -138 142 -227 141 -30 0 -61 -3 -69 -6z m130 -73 c41 -11
94 -61 109 -103 15 -40 14 -119 -4 -159 -45 -110 -196 -142 -286 -61 -123 111
-50 330 111 332 19 1 51 -4 70 -9z"/>
<path d="M70 541 l0 -251 30 0 30 0 0 215 0 215 70 0 c62 0 74 -3 95 -25 28
-27 34 -89 12 -119 -14 -19 -83 -38 -109 -30 -28 9 -22 -18 22 -87 21 -35 53
-88 70 -116 27 -48 34 -53 65 -53 19 0 35 5 35 10 0 6 -22 46 -50 90 -27 44
-50 82 -50 84 0 2 15 13 33 24 66 38 88 148 45 212 -45 65 -68 75 -189 78
l-109 4 0 -251z"/>
<path d="M974 777 c-2 -7 -3 -118 -2 -247 l3 -235 95 0 c138 1 187 33 197 128
6 47 -10 89 -45 121 -20 18 -20 19 -3 38 55 58 21 166 -62 197 -41 16 -176 14
-183 -2z m180 -73 c9 -9 16 -32 16 -54 0 -45 -11 -54 -80 -64 l-45 -6 0 70 0
70 47 0 c29 0 52 -6 62 -16z m27 -213 c25 -31 24 -86 -1 -111 -15 -15 -33 -20
-77 -20 l-58 0 0 81 0 81 59 -4 c46 -4 63 -9 77 -27z"/>
<path d="M1790 755 c0 -35 0 -35 45 -35 l45 0 0 -215 0 -215 35 0 35 0 0 215
0 215 45 0 c45 0 45 0 45 35 l0 35 -125 0 -125 0 0 -35z"/>
<path d="M2070 540 l0 -250 30 0 30 0 0 250 0 250 -30 0 -30 0 0 -250z"/>
<path d="M2162 782 c2 -4 38 -60 81 -124 l79 -116 -71 -105 c-39 -58 -75 -108
-81 -112 -5 -3 -10 -13 -10 -21 0 -11 9 -14 37 -12 34 3 41 9 101 100 l65 96
65 -99 c61 -93 67 -99 99 -99 20 0 33 5 33 13 -1 6 -36 63 -79 126 l-79 113
41 62 c22 33 58 84 79 113 21 29 38 57 38 63 0 5 -17 10 -37 9 -37 0 -40 -3
-99 -95 l-61 -95 -63 95 c-62 94 -64 96 -103 96 -21 0 -37 -4 -35 -8z"/>
<path d="M860 190 c0 -37 5 -55 20 -70 25 -25 35 -25 60 0 11 11 20 16 20 10
0 -19 39 -31 61 -19 17 8 20 8 14 -1 -5 -9 -1 -10 16 -5 13 4 26 12 27 16 5
12 42 12 42 0 0 -5 9 -11 20 -14 26 -7 25 7 -2 78 -27 72 -54 73 -77 3 -16
-46 -16 -47 -28 -23 -6 15 -7 27 -2 31 5 3 9 12 9 19 0 20 -47 30 -65 15 -10
-9 -15 -9 -15 -1 0 6 -9 11 -20 11 -17 0 -20 -7 -20 -45 0 -25 -4 -45 -10 -45
-5 0 -10 20 -10 45 0 38 -3 45 -20 45 -17 0 -20 -7 -20 -50z"/>
<path d="M1340 175 l0 -65 45 0 c36 0 45 3 45 18 1 16 1 16 14 0 7 -10 21 -18
30 -18 13 0 16 11 16 65 0 58 -2 65 -20 65 -14 0 -20 -7 -20 -22 l0 -22 -16
22 c-11 16 -25 22 -55 22 l-39 0 0 -65z"/>
<path d="M1500 175 l0 -65 39 0 c30 0 44 6 55 22 16 22 16 22 16 1 0 -18 6
-21 38 -21 20 0 40 5 44 11 6 9 13 9 28 0 29 -19 54 -17 46 4 -4 9 -14 39 -23
65 -13 40 -20 48 -36 46 -15 -2 -26 -18 -38 -53 l-18 -50 -1 53 c0 45 -3 52
-20 52 -15 0 -20 -7 -20 -25 l0 -24 -25 24 c-15 16 -36 25 -55 25 l-30 0 0
-65z"/>
</g>
</svg>
